HIERARCHY
ROOT Hips
{
	OFFSET 0.000000 0.000000 0.000000
	CHANNELS 6 Xposition Yposition Zposition Zrotation Yrotation Xrotation 
	JOINT LHipJoint
	{
		OFFSET 0.000000 0.000000 0.000000
		CHANNELS 3 Zrotation Yrotation Xrotation
		JOINT LeftUpLeg
		{
			OFFSET 1.363060 -1.794630 0.839290
			CHANNELS 3 Zrotation Yrotation Xrotation
			JOINT LeftLeg
			{
				OFFSET 2.448110 -6.726130 0.000000
				CHANNELS 3 Zrotation Yrotation Xrotation
				JOINT LeftFoot
				{
					OFFSET 2.562200 -7.039590 0.000000
					CHANNELS 3 Zrotation Yrotation Xrotation
					JOINT LeftToeBase
					{
						OFFSET 0.157640 -0.433110 2.322550
						CHANNELS 3 Zrotation Yrotation Xrotation
						End Site
						{
							OFFSET 0.000000 0.000000 0.000000
						}
					}
				}
			}
		}
	}
	JOINT RHipJoint
	{
		OFFSET 0.000000 0.000000 0.000000
		CHANNELS 3 Zrotation Yrotation Xrotation
		JOINT RightUpLeg
		{
			OFFSET -1.305520 -1.794630 0.839290
			CHANNELS 3 Zrotation Yrotation Xrotation
			JOINT RightLeg
			{
				OFFSET -2.542530 -6.985550 0.000000
				CHANNELS 3 Zrotation Yrotation Xrotation
				JOINT RightFoot
				{
					OFFSET -2.568260 -7.056230 0.000000
					CHANNELS 3 Zrotation Yrotation Xrotation
					JOINT RightToeBase
					{
						OFFSET -0.164730 -0.452590 2.363150
						CHANNELS 3 Zrotation Yrotation Xrotation
						End Site
						{
							OFFSET 0.000000 0.000000 0.000000
						}
					}
				}
			}
		}
	}
	JOINT LowerBack
	{
		OFFSET 0.000000 0.000000 0.000000
		CHANNELS 3 Zrotation Yrotation Xrotation
		JOINT Spine
		{
			OFFSET 0.028270 2.035590 -0.193380
			CHANNELS 3 Zrotation Yrotation Xrotation
			JOINT Spine1
			{
				OFFSET 0.056720 2.048850 -0.042750
				CHANNELS 3 Zrotation Yrotation Xrotation
				JOINT Neck
				{
					OFFSET 0.000000 0.000000 0.000000
					CHANNELS 3 Zrotation Yrotation Xrotation
					JOINT Neck1
					{
						OFFSET -0.054170 1.746240 0.172020
						CHANNELS 3 Zrotation Yrotation Xrotation
						JOINT Head
						{
							OFFSET 0.104070 1.761360 -0.123970
							CHANNELS 3 Zrotation Yrotation Xrotation
							End Site
							{
								OFFSET 0.000000 0.000000 0.000000
							}
						}
					}
				}
				JOINT LeftShoulder
				{
					OFFSET 0.000000 0.000000 0.000000
					CHANNELS 3 Zrotation Yrotation Xrotation
					JOINT LeftArm
					{
						OFFSET 3.362410 1.200890 -0.311210
						CHANNELS 3 Zrotation Yrotation Xrotation
						JOINT LeftForeArm
						{
							OFFSET 4.983000 -0.000000 -0.000000
							CHANNELS 3 Zrotation Yrotation Xrotation
							JOINT LeftHand
							{
								OFFSET 3.483560 -0.000000 -0.000000
								CHANNELS 3 Zrotation Yrotation Xrotation
								JOINT LeftFingerBase
								{
									OFFSET 0.000000 0.000000 0.000000
									CHANNELS 3 Zrotation Yrotation Xrotation
									JOINT LeftHandIndex1
									{
										OFFSET 0.715260 -0.000000 -0.000000
										CHANNELS 3 Zrotation Yrotation Xrotation
										End Site
										{
											OFFSET 0.000000 0.000000 0.000000
										}
									}
								}
								JOINT LThumb
								{
									OFFSET 0.000000 0.000000 0.000000
									CHANNELS 3 Zrotation Yrotation Xrotation
									End Site
									{
										OFFSET 0.000000 0.000000 0.000000
									}
								}
							}
						}
					}
				}
				JOINT RightShoulder
				{
					OFFSET 0.000000 0.000000 0.000000
					CHANNELS 3 Zrotation Yrotation Xrotation
					JOINT RightArm
					{
						OFFSET -3.136600 1.374050 -0.404650
						CHANNELS 3 Zrotation Yrotation Xrotation
						JOINT RightForeArm
						{
							OFFSET -5.241900 -0.000000 -0.000000
							CHANNELS 3 Zrotation Yrotation Xrotation
							JOINT RightHand
							{
								OFFSET -3.444170 -0.000000 -0.000000
								CHANNELS 3 Zrotation Yrotation Xrotation
								JOINT RightFingerBase
								{
									OFFSET 0.000000 0.000000 0.000000
									CHANNELS 3 Zrotation Yrotation Xrotation
									JOINT RightHandIndex1
									{
										OFFSET -0.622530 -0.000000 -0.000000
										CHANNELS 3 Zrotation Yrotation Xrotation
										End Site
										{
											OFFSET 0.000000 0.000000 0.000000
										}
									}
								}
								JOINT RThumb
								{
									OFFSET 0.000000 0.000000 0.000000
									CHANNELS 3 Zrotation Yrotation Xrotation
									End Site
									{
										OFFSET 0.000000 0.000000 0.000000
									}
								}
							}
						}
					}
				}
			}
		}
	}
}
MOTION
Frames: 11
Frame Time: 0.008333
55.233964 17.589454 -2.211423 1.749598 -7.648793 0.978878 5.289417 -0.588871 -0.909028 -26.815952 -4.083511 -15.185819 0.164393 12.121653 31.248284 1.450101 -0.795548 -7.020299 3.107100 -10.866400 -31.830600 -5.392840 0.876317 -1.787146 37.886983 8.912902 6.776151 0.485625 -8.924132 24.018702 1.573936 -23.325624 -41.644029 -0.162600 2.598100 -7.161800 -5.891169 4.018708 6.005543 -0.469945 5.728938 1.195276 -12.124620 2.830937 3.945114 5.892525 6.168320 -2.544043 8.510227 6.866359 20.794662 -0.612600 5.167300 8.055300 8.280661 6.064526 -1.584938 -84.426453 1.976084 31.579974 13.527142 -18.825475 -3.662913 -2.085138 -4.172307 -3.913961 19.468090 9.754501 5.486900 -7.125000 0.000000 0.000000 -5.121100 44.768300 0.029400 -12.405196 -5.564887 0.112805 100.181884 -17.632517 36.469660 -16.307114 28.414553 -7.089375 0.924105 2.473024 -20.216268 -15.088977 6.134906 -1.220200 7.125000 0.000000 0.000000 7.394100 -25.755000 3.474000 
55.252253 17.600987 -2.241011 1.878639 -8.074784 0.940537 5.320542 -0.604506 -0.919372 -26.922332 -4.293182 -15.302506 0.183755 12.189255 31.403265 1.307512 -0.448096 -6.494183 3.086500 -10.833700 -31.721100 -5.377828 0.869269 -1.779479 37.574193 8.889298 6.741970 0.485701 -8.878976 23.902453 1.781749 -23.479192 -41.043825 -0.201200 2.888100 -7.967500 -6.107333 4.062388 6.167290 -0.501602 5.752428 1.185553 -12.131398 2.852022 3.857412 5.837311 6.249526 -2.588469 8.608754 6.942521 20.697883 -0.539700 5.191300 8.015900 8.259000 6.036347 -1.585118 -84.246697 2.017149 31.633332 13.458682 -18.738401 -3.631487 -2.073079 -4.130061 -4.025353 19.343207 9.541822 5.350600 -7.125000 0.000000 0.000000 -5.196000 44.477600 0.067200 -12.425533 -5.532013 0.114194 100.229888 -17.478608 36.654564 -16.416597 28.516518 -7.159137 0.908519 2.483320 -20.140728 -15.110793 5.989898 -1.172000 7.125000 0.000000 0.000000 7.395900 -25.922200 3.445700 
55.268095 17.616713 -2.269434 1.972412 -8.436834 0.884464 5.358973 -0.624517 -0.934171 -26.933502 -4.797294 -15.335979 0.211997 12.273667 31.597524 1.231607 -0.295862 -5.980914 3.129600 -10.901900 -31.949900 -5.366395 0.870308 -1.768414 37.411513 9.070667 6.837461 0.497193 -8.824914 23.762958 1.970843 -23.786508 -40.694462 -0.220800 3.025100 -8.348800 -6.255313 4.060807 6.354117 -0.541610 5.718136 1.179775 -12.201633 2.852797 3.804646 5.784962 6.297769 -2.701297 8.712972 6.965125 20.607977 -0.454600 5.187700 7.992800 8.237684 6.008229 -1.591722 -83.994286 2.050586 31.850885 13.416304 -18.688345 -3.601482 -2.105327 -4.135096 -4.303407 19.552881 9.504061 5.402700 -7.125000 0.000000 0.000000 -4.947600 44.458400 0.066300 -12.460203 -5.500781 0.117271 100.383860 -17.317513 36.894886 -16.567398 28.661838 -7.262726 0.846149 2.556525 -19.935565 -15.241445 5.188288 -0.906800 7.125000 0.000000 0.000000 7.374100 -26.848100 3.274200 
55.286151 17.629293 -2.292615 1.886039 -8.654136 0.841380 5.396215 -0.644687 -0.950569 -26.717837 -5.664136 -15.271144 0.245179 12.371116 31.825720 1.112296 -0.001515 -5.420836 3.527200 -11.503100 -33.996100 -5.366025 0.878341 -1.764793 37.470359 9.248473 6.951419 0.518524 -8.772187 23.610393 2.119286 -24.153456 -40.576975 -0.248500 3.207700 -8.857700 -6.105918 4.057418 6.535486 -0.567362 5.702927 1.184745 -12.361360 2.870453 3.814432 5.765418 6.252375 -2.868521 8.770546 6.867830 20.533977 -0.397000 5.126300 7.987000 8.214286 5.988044 -1.598442 -83.749701 1.999540 32.314781 13.371530 -18.618917 -3.564024 -2.147747 -4.173260 -4.574125 19.855172 9.648064 5.567800 -7.125000 0.000000 0.000000 -4.639900 44.678800 0.036900 -12.487363 -5.484255 0.119122 100.633587 -17.216972 36.852102 -16.682712 28.778286 -7.339563 0.817328 2.600962 -19.678343 -15.379255 4.738937 -0.757900 7.125000 0.000000 0.000000 7.313900 -27.373300 3.156000 
55.308284 17.637331 -2.311836 1.800574 -8.791840 0.780023 5.436026 -0.668239 -0.968952 -26.487747 -6.680471 -15.153932 0.293179 12.486771 32.104047 1.111297 -0.077813 -4.811779 4.038600 -12.211700 -36.484900 -5.368162 0.889816 -1.763565 37.559236 9.495717 7.144128 0.550522 -8.698737 23.415114 2.170209 -24.361436 -40.639876 -0.249600 3.214800 -8.877300 -5.843865 4.082273 6.737780 -0.587533 5.732466 1.204651 -12.630407 2.906462 3.795657 5.999784 6.278442 -2.703676 8.453245 6.960685 20.237260 -0.619800 5.145400 7.828100 8.212705 5.955797 -1.570019 -83.517655 1.849333 32.656370 13.272764 -18.460159 -3.504217 -2.160886 -4.149951 -4.325445 19.807852 9.674224 5.557500 -7.125000 0.000000 0.000000 -4.691800 44.684400 0.036600 -12.476527 -5.461310 0.136640 100.778339 -17.202886 36.853216 -16.783164 28.899075 -7.407285 0.821809 2.604536 -19.703498 -15.451160 4.790265 -0.776700 7.125000 0.000000 0.000000 7.251000 -27.321800 3.137300 
55.323311 17.641991 -2.331290 1.824021 -9.059356 0.689491 5.472638 -0.684446 -0.979379 -26.294107 -7.287119 -15.139387 0.358432 12.591890 32.397204 1.380139 -1.025977 -4.081382 3.943900 -12.085300 -36.034600 -5.360907 0.894232 -1.759490 37.518156 9.650548 7.332544 0.574364 -8.623210 23.235122 2.156693 -24.270362 -40.577809 -0.223800 3.045100 -8.404300 -5.777818 4.144960 6.940798 -0.615048 5.800164 1.219986 -12.802516 2.960343 3.796388 6.053881 6.158477 -2.735039 8.341025 6.812241 20.129244 -0.688100 5.057900 7.787000 8.182045 5.916594 -1.554623 -83.316538 1.664873 32.675155 13.182857 -18.310509 -3.456076 -2.145894 -4.077394 -3.760717 19.500530 9.555526 5.392100 -7.125000 0.000000 0.000000 -5.000300 44.463500 0.066400 -12.478546 -5.419784 0.134363 100.755128 -17.131786 37.195268 -16.886063 29.018504 -7.476705 0.812104 2.619454 -20.008298 -15.503140 4.739409 -0.761100 7.125000 0.000000 0.000000 7.208800 -27.383300 3.108200 
55.329485 17.644553 -2.348414 1.801688 -9.409027 0.636186 5.497214 -0.692678 -0.985125 -26.014859 -7.558667 -15.200805 0.417518 12.667040 32.640357 1.591920 -1.787815 -3.462258 3.707300 -11.760400 -34.889500 -5.355219 0.894211 -1.753926 37.526481 9.740909 7.470048 0.590968 -8.567489 23.096617 2.161616 -24.182297 -40.447554 -0.204600 2.912400 -8.034900 -5.783883 4.229156 7.091415 -0.635448 5.893234 1.225293 -12.876088 3.014692 3.746074 6.056589 6.278634 -2.678055 8.221013 7.003336 19.911904 -0.744800 5.121400 7.675800 8.175315 5.877046 -1.535972 -83.160542 1.562570 32.599060 13.136678 -18.238907 -3.435728 -2.116334 -4.032849 -3.406835 19.214563 9.497229 5.266500 -7.125000 0.000000 0.000000 -5.299600 44.331200 0.087700 -12.471081 -5.385043 0.144331 100.746679 -17.034562 37.527301 -16.925746 29.051569 -7.504746 0.798224 2.627191 -20.168962 -15.475852 4.649268 -0.729800 7.125000 0.000000 0.000000 7.238500 -27.483900 3.104000 
55.336358 17.646883 -2.357267 1.795711 -9.714211 0.601678 5.516767 -0.699397 -0.988684 -25.832480 -7.898176 -15.154103 0.454399 12.721220 32.805723 1.623396 -1.917735 -3.250972 3.884800 -12.005600 -35.751700 -5.353481 0.899130 -1.741896 37.591545 10.045760 7.703541 0.611338 -8.514524 22.972113 2.163887 -24.251825 -40.522011 -0.185900 2.776800 -7.658000 -5.779322 4.280855 7.179591 -0.651731 5.949635 1.222926 -12.938255 3.046783 3.680659 6.065238 6.368137 -2.569791 8.096538 7.158228 19.735892 -0.809500 5.172800 7.571500 8.182126 5.866114 -1.527507 -83.039981 1.587223 32.562325 13.115656 -18.215825 -3.421571 -2.111805 -4.042578 -3.406280 19.199111 9.574600 5.294500 -7.125000 0.000000 0.000000 -5.333200 44.420800 0.076500 -12.471209 -5.374066 0.158128 100.776170 -17.010865 37.709637 -16.941734 29.078725 -7.534134 0.782740 2.608810 -20.084029 -15.250767 4.666173 -0.727500 7.125000 0.000000 0.000000 7.428000 -27.455500 3.191500 
55.344629 17.649912 -2.356684 1.733849 -10.033353 0.574841 5.526923 -0.701711 -0.984582 -25.678849 -8.433626 -14.923964 0.470127 12.746911 32.878859 1.597971 -1.804960 -3.474413 4.120700 -12.319400 -36.871300 -5.360691 0.902409 -1.735267 37.710033 10.342043 7.935304 0.619241 -8.479676 22.892064 2.157581 -24.096335 -40.343478 -0.113400 2.170800 -5.978000 -5.692724 4.298047 7.196118 -0.649136 5.971895 1.217378 -12.974998 3.060790 3.647720 6.038309 6.443272 -2.502947 7.965151 7.304166 19.637111 -0.866300 5.224500 7.518800 8.196657 5.877652 -1.528684 -83.012417 1.728862 32.414118 13.119115 -18.230227 -3.406205 -2.147676 -4.095951 -3.561433 19.484195 9.782081 5.482600 -7.125000 0.000000 0.000000 -5.070900 44.727900 0.034200 -12.475908 -5.372750 0.164656 100.669570 -17.015314 38.074675 -16.978920 29.136534 -7.575214 0.761849 2.601880 -19.931855 -15.095257 4.550502 -0.683700 7.125000 0.000000 0.000000 7.575900 -27.579000 3.233800 
55.349521 17.648631 -2.347715 1.556852 -10.349144 0.539675 5.525619 -0.697066 -0.974285 -25.495357 -9.007915 -14.535559 0.467495 12.731355 32.853454 1.544797 -1.549127 -4.057621 4.237000 -12.469300 -37.413000 -5.380486 0.906937 -1.730621 38.031902 10.732173 8.232822 0.617577 -8.474943 22.885550 2.125240 -23.855590 -40.151251 -0.038600 1.267900 -3.486200 -5.506027 4.338743 7.160437 -0.631728 6.036594 1.212983 -12.991464 3.099326 3.660028 5.911711 6.539762 -2.458213 8.002284 7.443414 19.580499 -0.816300 5.276800 7.461600 8.207934 5.871023 -1.525859 -82.988484 1.888446 32.283899 13.130880 -18.267165 -3.397288 -2.187798 -4.154415 -3.742903 19.809805 9.995663 5.691400 -7.125000 0.000000 0.000000 -4.765400 45.052300 -0.006200 -12.494815 -5.361317 0.160373 100.248355 -17.011229 38.976093 -17.082414 29.265766 -7.638175 0.738656 2.632250 -20.122426 -15.231163 4.225971 -0.581800 7.125000 0.000000 0.000000 7.496900 -27.946300 3.134000 
55.349405 17.635118 -2.332571 1.417834 -10.537434 0.472459 5.516999 -0.684502 -0.958336 -25.447267 -9.457789 -14.094629 0.449005 12.691967 32.765147 1.430904 -1.084504 -4.774227 4.341600 -12.601700 -37.895100 -5.396782 0.901434 -1.734056 38.277424 10.883665 8.463961 0.609638 -8.486713 22.929509 2.101045 -23.747974 -40.096726 -0.030900 1.133900 -3.117200 -5.366907 4.359072 7.086917 -0.609350 6.076924 1.206896 -12.977916 3.134865 3.768255 5.756491 6.307967 -2.682094 8.202360 7.082245 19.749139 -0.684000 5.112500 7.570800 8.190381 5.854440 -1.538212 -82.928151 2.021822 32.225381 13.126189 -18.293968 -3.394341 -2.202602 -4.176349 -3.938724 19.954880 10.027721 5.758400 -7.125000 0.000000 0.000000 -4.611100 45.121200 -0.013800 -12.509845 -5.327756 0.121507 99.339515 -16.931321 40.166331 -17.126809 29.354903 -7.653268 0.800663 2.531546 -21.350777 -15.022103 5.394146 -0.971400 7.125000 0.000000 0.000000 7.527100 -26.584700 3.390200 
